<svg width="111" height="27" viewBox="0 0 111 27" fill="none" xmlns="http://www.w3.org/2000/svg">
<path fill-rule="evenodd" clip-rule="evenodd" d="M0.771851 6.16346L12.6436 0L24.6429 6.16346L12.6436 12.3424L0.771851 6.16346ZM72.0414 9.15634V9.00747C72.0414 6.97931 73.2345 6.32887 75.2439 6.47293V2.76451C70.4299 2.47104 68.1483 4.88285 68.1483 9.00747V9.15634H65.9713V12.8653H68.1483V24.092H72.0414V12.8653H76.5208V24.092H80.4139V12.8653H83.6164V9.15634H80.4139V9.00747C80.4139 6.97931 81.5861 6.32887 83.6164 6.47293V2.76451C78.8024 2.47104 76.5208 4.88285 76.5208 9.00747V9.15634H72.0414ZM44.8301 13.2175C46.0648 12.2357 46.8182 10.8323 46.8182 9.02881C46.8182 5.53329 43.9715 3.14336 40.3922 3.14336H32.0822V24.0493H41.0619C44.7249 24.0493 47.6554 21.5788 47.6554 17.9984C47.6138 15.8374 46.5253 14.1827 44.8301 13.2175ZM40.413 7.01719C41.7529 7.01719 42.6738 8.00379 42.6738 9.32229C42.6738 10.645 41.7107 11.6268 40.413 11.6268H36.2479V7.01719H40.413ZM41.0411 20.2181H36.2479V15.2926H41.0411C42.4647 15.2926 43.4902 16.3384 43.4902 17.7417C43.4902 19.167 42.4647 20.2181 41.0411 20.2181ZM59.7961 9.135V17.198C59.7961 19.7966 58.373 20.9064 56.4681 20.9064C54.7094 20.9064 53.4747 19.8606 53.4747 17.8271V9.135H49.5811V18.3079C49.5811 22.2884 52.0724 24.4921 55.2958 24.4921C57.3261 24.4921 58.8959 23.7345 59.7753 22.3952V24.0706H63.6683V9.135H59.7961ZM99.7548 18.1846H88.3686C88.9336 20.1541 90.5659 20.9918 92.5967 20.9918C94.1244 20.9918 95.3388 20.3617 95.9876 19.5031L99.1273 21.2853C97.725 23.3177 95.4642 24.4921 92.5546 24.4921C87.4892 24.4921 84.2866 21.0558 84.2866 16.5951C84.2866 12.129 87.51 8.69212 92.2616 8.69212C96.7203 8.69212 99.902 12.193 99.902 16.5951C99.902 17.1767 99.8391 17.6836 99.7548 18.1846ZM92.2616 12.193C90.1689 12.193 88.7447 13.3028 88.3051 15.2072H96.0084C95.5266 13.0521 93.8944 12.193 92.2616 12.193ZM105.532 11.7122V9.135H101.639V24.0706H105.532V16.9259C105.532 13.7825 108.087 12.8866 110.116 13.1369V8.84206C108.212 8.84206 106.307 9.67979 105.532 11.7122ZM12.6436 22.9127L4.54431 18.5106L0.771851 20.5543L12.6436 27L24.6429 20.5543L20.8278 18.5106L12.6436 22.9127ZM4.54431 11.5687L12.6436 15.5594L20.8278 11.5687L24.6429 13.4309L12.6436 19.2843L0.771851 13.4309L4.54431 11.5687Z" fill="black"/>
</svg>
