<?xml version="1.0" encoding="UTF-8"?>
<svg width="24" height="24" viewBox="0 0 24 24" fill="none" xmlns="http://www.w3.org/2000/svg">
  <path d="M8 3H7C6.46957 3 5.96086 3.21071 5.58579 3.58579C5.21071 3.96086 5 4.46957 5 5V19C5 19.5304 5.21071 20.0391 5.58579 20.4142C5.96086 20.7893 6.46957 21 7 21H17C17.5304 21 18.0391 20.7893 18.4142 20.4142C18.7893 20.0391 19 19.5304 19 19V5C19 4.46957 18.7893 3.96086 18.4142 3.58579C18.0391 3.21071 17.5304 3 17 3H16M8 3V4C8 4.53043 8.21071 5.03914 8.58579 5.41421C8.96086 5.78929 9.46957 6 10 6H14C14.5304 6 15.0391 5.78929 15.4142 5.41421C15.7893 5.03914 16 4.53043 16 4V3M8 3H16" stroke="#48BB78" stroke-width="2" stroke-linecap="round" stroke-linejoin="round"/>
  <path d="M9 12L11 14L15 10" stroke="#48BB78" stroke-width="2" stroke-linecap="round" stroke-linejoin="round"/>
</svg>
