<svg width="125" height="29" viewBox="0 0 125 29" fill="none" xmlns="http://www.w3.org/2000/svg">
<path d="M36.0371 23.2317V4.56506H47.4278V8.17797H40.3525V13.1959H47.4278V16.7586H40.3525V23.2317H36.0371Z" fill="black"/>
<path d="M50.2872 23.2315V10.3857H54.3518V13.0452C54.5525 12.1419 55.0041 11.3892 55.6564 10.8875C56.3088 10.3857 57.0614 10.1348 57.8643 10.1348C58.2658 10.1348 58.6672 10.1849 58.9181 10.2351V14.0487C58.4163 13.9986 58.0149 13.9484 57.7138 13.9484C55.4557 13.9484 54.3518 15.4036 54.3518 18.2136V23.1814H50.2872V23.2315Z" fill="black"/>
<path d="M65.9449 23.5328C64.0882 23.5328 62.5828 22.8804 61.5291 21.626C60.4251 20.3715 59.9233 18.7156 59.9233 16.7586C59.9233 14.8016 60.4753 13.1958 61.5793 11.8912C62.6832 10.6367 64.1886 9.98438 65.995 9.98438C66.8983 9.98438 67.7011 10.1851 68.4037 10.5865C69.1062 10.988 69.6581 11.4898 70.0094 12.1923V10.3356H74.0739V23.1815H70.0094V21.3751C69.6581 22.0274 69.1062 22.5292 68.3535 22.9306C67.651 23.3822 66.8481 23.5328 65.9449 23.5328ZM67.099 20.1708C68.0524 20.1708 68.8553 19.8697 69.3571 19.2174C69.8589 18.565 70.1599 17.7622 70.1599 16.8087C70.1599 15.8553 69.909 15.0525 69.3571 14.4001C68.8051 13.7478 68.0524 13.4467 67.099 13.4467C66.1958 13.4467 65.4431 13.7478 64.8911 14.4001C64.3391 15.0023 64.038 15.8553 64.038 16.8087C64.038 17.8123 64.3391 18.6152 64.8911 19.2675C65.4431 19.8697 66.1958 20.1708 67.099 20.1708Z" fill="black"/>
<path d="M77.4351 23.2319V10.386H81.4996V12.2427C81.8007 11.5903 82.2523 11.0384 82.9046 10.6369C83.5569 10.2355 84.3096 10.0348 85.1627 10.0348C87.1699 10.0348 88.5247 10.8377 89.177 12.3932C89.5283 11.6907 90.0803 11.0886 90.7828 10.6871C91.5355 10.2355 92.3383 10.0348 93.2416 10.0348C96.3025 10.0348 97.8079 11.7911 97.8079 15.2534V23.2319H93.6932V16.0061C93.6932 14.3 93.0409 13.4972 91.7864 13.4972C90.3312 13.4972 89.6287 14.5509 89.6287 16.6584V23.2821H85.6143V15.9559C85.6143 14.3 84.962 13.447 83.7075 13.447C83.005 13.447 82.453 13.6979 82.1017 14.1495C81.7505 14.6011 81.5498 15.4541 81.5498 16.6083V23.2319H77.4351Z" fill="black"/>
<path d="M113.765 16.1065C113.765 16.6584 113.715 17.2104 113.665 17.9129H104.181C104.231 18.766 104.482 19.4183 105.034 19.8699C105.586 20.3215 106.289 20.5724 107.192 20.5724C108.446 20.5724 109.249 20.171 109.6 19.3681H113.615C113.414 20.6226 112.712 21.6764 111.557 22.4291C110.353 23.2319 108.948 23.6334 107.242 23.6334C105.034 23.6334 103.328 23.0312 102.074 21.8269C100.819 20.6226 100.167 18.9667 100.167 16.809C100.167 14.7015 100.819 13.0455 102.074 11.8412C103.328 10.6369 105.034 10.0348 107.092 10.0348C109.099 10.0348 110.704 10.5868 111.959 11.7409C113.113 12.8448 113.765 14.3 113.765 16.1065ZM104.131 15.3538H109.701C109.701 14.5007 109.45 13.8484 108.998 13.3968C108.547 12.9452 107.894 12.6943 106.991 12.6943C106.138 12.6943 105.436 12.9452 104.934 13.447C104.432 13.9488 104.181 14.6011 104.131 15.3538Z" fill="black"/>
<path d="M116.073 23.2315V10.3857H120.138V13.0452C120.338 12.1419 120.79 11.3892 121.442 10.8875C122.095 10.3857 122.847 10.1348 123.65 10.1348C124.052 10.1348 124.453 10.1849 124.704 10.2351V14.0487C124.202 13.9986 123.801 13.9484 123.5 13.9484C121.242 13.9484 120.138 15.4036 120.138 18.2136V23.1814H116.073V23.2315Z" fill="black"/>
<path d="M19.4784 0.5V9.83333H10.145L0.811646 0.5H19.4784ZM0.811646 9.83333H10.145L19.4784 19.1667H10.145V28.5L0.811646 19.1667V9.83333Z" fill="black"/>
</svg>
