<svg width="99" height="29" viewBox="0 0 99 29" fill="none" xmlns="http://www.w3.org/2000/svg">
<path d="M11.3506 5.23926V13.0989H4.12991V5.23926H0.704102V24.0013H4.13083V16.3967H11.3497V24.0013H14.7774V5.23926H11.3506ZM25.7457 17.9371C25.7457 18.6891 25.4469 19.4103 24.9152 19.9421C24.3834 20.4738 23.6622 20.7725 22.9102 20.7725C22.1581 20.7725 21.4369 20.4738 20.9051 19.9421C20.3734 19.4103 20.0746 18.6891 20.0746 17.9371V9.90031H16.8241V17.9371C16.8241 19.5496 17.4647 21.096 18.6049 22.2362C19.7451 23.3764 21.2916 24.017 22.9041 24.017C24.5167 24.017 26.0631 23.3764 27.2034 22.2362C28.3436 21.096 28.9841 19.5496 28.9841 17.9371V9.90031H25.7457V17.9371ZM49.8311 10.7285C49.8311 9.0805 50.9208 8.55838 52.1144 8.55838C53.077 8.55838 54.3475 9.29102 55.1794 10.1795L57.3078 7.66994C56.245 6.23249 54.0897 5.23926 52.3249 5.23926C48.798 5.23926 46.2476 7.30455 46.2476 10.7285C46.2476 17.0811 54.0118 15.0649 54.0118 18.6205C54.0118 19.7167 52.9472 20.6849 51.7286 20.6849C49.8061 20.6849 49.1828 19.7455 48.3 18.7513L45.937 21.208C47.4486 23.0627 49.3127 24.005 51.5449 24.005C54.8956 24.005 57.5906 21.9146 57.5906 18.6465C57.5906 11.5947 49.8255 13.7861 49.8255 10.7285M97.8647 21.0039C95.9441 21.0039 95.3978 20.173 95.3978 18.9006V13.2667H98.384V10.4122H95.3978V6.64611L92.1019 8.12529V19.6008C92.1019 22.536 94.1273 24.0152 96.9039 24.0152C97.3398 24.0226 97.7757 23.9873 98.2041 23.9113L99.0082 20.9511C98.6456 20.9761 98.2292 21.0012 97.8647 21.0012M38.119 9.99398C36.509 9.99398 35.385 10.4614 34.2981 11.527V5.35147H31.043V16.7982C31.043 21.0828 34.1405 24.0189 37.6219 24.0189C41.4836 24.0189 44.8807 21.0308 44.8807 17.0078C44.8807 13.0349 41.7544 9.99676 38.119 9.99676M38.0986 20.7424C37.6135 20.7424 37.1331 20.6469 36.6849 20.4612C36.2367 20.2755 35.8294 20.0034 35.4864 19.6604C35.1433 19.3173 34.8712 18.9101 34.6855 18.4619C34.4999 18.0137 34.4043 17.5333 34.4043 17.0482C34.4043 16.563 34.4999 16.0826 34.6855 15.6344C34.8712 15.1862 35.1433 14.779 35.4864 14.4359C35.8294 14.0929 36.2367 13.8208 36.6849 13.6351C37.1331 13.4495 37.6135 13.3539 38.0986 13.3539C39.0784 13.3539 40.018 13.7431 40.7109 14.4359C41.4037 15.1287 41.7929 16.0684 41.7929 17.0482C41.7929 18.0279 41.4037 18.9676 40.7109 19.6604C40.018 20.3532 39.0784 20.7424 38.0986 20.7424ZM73.4714 16.8372C73.4714 12.8067 70.0817 9.82612 66.2126 9.82612C62.7321 9.82612 59.6337 12.7613 59.6337 17.0468V28.5H62.8889V22.3162C63.9739 23.3799 65.0998 23.8492 66.7079 23.8492C70.3433 23.8492 73.4705 20.811 73.4705 16.8372M70.3887 16.7964C70.3887 17.7761 69.9995 18.7158 69.3067 19.4086C68.6139 20.1014 67.6742 20.4906 66.6944 20.4906C65.7146 20.4906 64.775 20.1014 64.0822 19.4086C63.3894 18.7158 63.0001 17.7761 63.0001 16.7964C63.0001 15.8166 63.3894 14.8769 64.0822 14.1841C64.775 13.4913 65.7146 13.1021 66.6944 13.1021C67.6742 13.1021 68.6139 13.4913 69.3067 14.1841C69.9995 14.8769 70.3887 15.8166 70.3887 16.7964Z" fill="black"/>
<path d="M83.9566 9.54389V6.27299C84.3888 6.07098 84.7548 5.75035 85.0119 5.34844C85.269 4.94653 85.4067 4.47985 85.4089 4.00274V3.92763C85.4089 2.53654 84.2811 1.40884 82.8901 1.40884H82.8149C82.1469 1.40884 81.5062 1.67421 81.0339 2.14657C80.5615 2.61894 80.2961 3.2596 80.2961 3.92763V4.00274C80.2983 4.47985 80.436 4.94653 80.6931 5.34844C80.9502 5.75035 81.3162 6.07098 81.7484 6.27299V9.54389C80.5061 9.73411 79.3361 10.2492 78.3569 11.037L69.3862 4.05004C69.4502 3.81912 69.4836 3.58171 69.4873 3.34337C69.4884 2.78203 69.323 2.23297 69.012 1.76564C68.701 1.29832 68.2584 0.933721 67.7402 0.717973C67.222 0.502224 66.6514 0.445015 66.1006 0.553583C65.5499 0.662151 65.0437 0.931618 64.6461 1.3279C64.2485 1.72418 63.9774 2.22947 63.867 2.77986C63.7567 3.33025 63.812 3.901 64.0261 4.41993C64.2401 4.93886 64.6033 5.38265 65.0696 5.69517C65.5359 6.00768 66.0844 6.17488 66.6458 6.17561C67.1369 6.1733 67.6188 6.0422 68.0434 5.79539L76.8768 12.6692C76.0833 13.868 75.6693 15.278 75.6888 16.7156C75.7083 18.1531 76.1604 19.5514 76.9862 20.7282L74.2996 23.4158C74.0824 23.3463 73.8561 23.3094 73.6281 23.3063C73.1674 23.3067 72.717 23.4436 72.3341 23.6999C71.9511 23.9561 71.6527 24.3201 71.4765 24.7459C71.3003 25.1716 71.2543 25.6401 71.3443 26.092C71.4343 26.5439 71.6562 26.959 71.982 27.2848C72.3079 27.6106 72.723 27.8325 73.1749 27.9225C73.6268 28.0125 74.0952 27.9665 74.521 27.7903C74.9468 27.6142 75.3108 27.3158 75.567 26.9328C75.8232 26.5498 75.9602 26.0995 75.9605 25.6387C75.9575 25.4107 75.9207 25.1844 75.8511 24.9673L78.509 22.3085C79.3758 22.9757 80.3837 23.4357 81.4557 23.6533C82.5277 23.8708 83.6352 23.8401 84.6935 23.5635C85.7518 23.2869 86.7327 22.7717 87.5611 22.0574C88.3895 21.3431 89.0435 20.4487 89.4728 19.4427C89.9021 18.4367 90.0955 17.3457 90.0381 16.2534C89.9807 15.1611 89.674 14.0964 89.1415 13.1409C88.6091 12.1854 87.865 11.3645 86.9663 10.741C86.0675 10.1175 85.038 9.70803 83.9566 9.54389ZM82.8548 20.3016C82.3636 20.3151 81.8747 20.23 81.4169 20.0514C80.9591 19.8727 80.5418 19.6042 80.1896 19.2615C79.8373 18.9188 79.5574 18.5091 79.3662 18.0564C79.175 17.6037 79.0765 17.1173 79.0765 16.6259C79.0765 16.1345 79.175 15.6481 79.3662 15.1954C79.5574 14.7427 79.8373 14.3329 80.1896 13.9903C80.5418 13.6476 80.9591 13.379 81.4169 13.2004C81.8747 13.0217 82.3636 12.9367 82.8548 12.9502C83.8069 12.9835 84.7088 13.385 85.3707 14.0702C86.0326 14.7553 86.4028 15.6705 86.4033 16.6232C86.4037 17.5758 86.0345 18.4914 85.3733 19.1772C84.7121 19.863 83.8105 20.2654 82.8585 20.2997" fill="black"/>
</svg>
