<svg width="24" height="24" viewBox="0 0 24 24" fill="none" xmlns="http://www.w3.org/2000/svg">
<path d="M11.1165 0.666428C11.4923 -0.0423475 12.5077 -0.0423493 12.8835 0.666427L16.3604 7.22446C16.4542 7.40123 16.5988 7.54583 16.7755 7.63955L23.3336 11.1165C24.0423 11.4923 24.0423 12.5077 23.3336 12.8835L16.7755 16.3604C16.5988 16.4542 16.4542 16.5988 16.3604 16.7755L12.8835 23.3336C12.5077 24.0423 11.4923 24.0423 11.1165 23.3336L7.63955 16.7755C7.54583 16.5988 7.40123 16.4542 7.22446 16.3604L0.666428 12.8835C-0.0423475 12.5077 -0.0423493 11.4923 0.666427 11.1165L7.22446 7.63955C7.40123 7.54583 7.54583 7.40123 7.63955 7.22446L11.1165 0.666428Z" fill="#BA8DFF"/>
</svg>
