<svg width="24" height="24" viewBox="0 0 24 24" fill="none" xmlns="http://www.w3.org/2000/svg">
<path d="M11.5586 0.900391C11.7466 0.546449 12.2534 0.546451 12.4414 0.900391L15.9189 7.45898C16.0595 7.72387 16.2761 7.94053 16.541 8.08105L23.0996 11.5586C23.4536 11.7466 23.4535 12.2534 23.0996 12.4414L16.541 15.9189C16.2761 16.0595 16.0595 16.2761 15.9189 16.541L12.4414 23.0996C12.2534 23.4536 11.7466 23.4535 11.5586 23.0996L8.08105 16.541C7.94053 16.2761 7.72387 16.0595 7.45898 15.9189L0.900391 12.4414C0.546449 12.2534 0.546451 11.7466 0.900391 11.5586L7.45898 8.08105C7.72387 7.94053 7.94053 7.72387 8.08105 7.45898L11.5586 0.900391Z" stroke="#BA8DFF"/>
</svg>
