<svg width="24" height="23" viewBox="0 0 24 23" fill="none" xmlns="http://www.w3.org/2000/svg">
<path d="M8.36729 3.18034C9.51071 -0.338755 14.4893 -0.338754 15.6327 3.18034C16.1441 4.75413 17.6106 5.81966 19.2654 5.81966C22.9656 5.81966 24.5041 10.5546 21.5106 12.7295C20.1718 13.7021 19.6116 15.4262 20.123 17C21.2664 20.5191 17.2387 23.4454 14.2451 21.2705C12.9064 20.2979 11.0936 20.2979 9.75486 21.2705C6.76134 23.4454 2.73358 20.5191 3.87701 17C4.38836 15.4262 3.82818 13.7021 2.48944 12.7295C-0.504086 10.5546 1.03438 5.81966 4.73457 5.81966C6.38935 5.81966 7.85593 4.75413 8.36729 3.18034Z" fill="#BA8DFF"/>
</svg>
