<svg width="24" height="23" viewBox="0 0 24 23" fill="none" xmlns="http://www.w3.org/2000/svg">
<path d="M8.84277 3.33496C9.83652 0.276522 14.1635 0.276522 15.1572 3.33496C15.7356 5.1147 17.3943 6.31934 19.2656 6.31934C22.4813 6.31951 23.8184 10.435 21.2168 12.3252C19.7029 13.4251 19.0693 15.3746 19.6475 17.1543C20.6102 20.1172 17.3549 22.597 14.7852 21.0303L14.249 20.6729C12.8693 19.8307 11.1307 19.8307 9.75098 20.6729L9.21484 21.0303C6.64513 22.597 3.38982 20.1172 4.35254 17.1543C4.93072 15.3746 4.29712 13.4251 2.7832 12.3252C0.181593 10.435 1.51869 6.31951 4.73438 6.31934C6.60573 6.31934 8.26445 5.1147 8.84277 3.33496Z" stroke="#BA8DFF"/>
</svg>
