<svg width="70" height="29" viewBox="0 0 70 29" fill="none" xmlns="http://www.w3.org/2000/svg">
<path fill-rule="evenodd" clip-rule="evenodd" d="M69.8116 14.984C69.8116 10.028 67.411 6.11749 62.8227 6.11749C58.2151 6.11749 55.4273 10.028 55.4273 14.9453C55.4273 20.7724 58.7185 23.715 63.4423 23.715C65.7461 23.715 67.4884 23.1923 68.8049 22.4566V18.5848C67.4884 19.243 65.9784 19.6495 64.0618 19.6495C62.1839 19.6495 60.5189 18.9913 60.306 16.7069H69.7729C69.7729 16.4553 69.8116 15.4486 69.8116 14.984ZM60.2479 13.1449C60.2479 10.9573 61.5837 10.0474 62.8034 10.0474C63.9843 10.0474 65.2427 10.9573 65.2427 13.1449H60.2479ZM47.9544 6.11749C46.0572 6.11749 44.8375 7.00801 44.1599 7.6275L43.9083 6.42724H39.6491V29L44.489 27.974L44.5084 22.4953C45.2054 22.9987 46.2314 23.715 47.9351 23.715C51.4005 23.715 54.5561 20.9272 54.5561 14.7904C54.5368 9.17624 51.3424 6.11749 47.9544 6.11749ZM46.7929 19.4559C45.6506 19.4559 44.973 19.0494 44.5084 18.5461L44.489 11.3638C44.9924 10.8024 45.6894 10.4152 46.7929 10.4152C48.5546 10.4152 49.7743 12.3899 49.7743 14.9259C49.7743 17.52 48.574 19.4559 46.7929 19.4559ZM32.9893 4.9753L37.8486 3.92991V0L32.9893 1.02603V4.9753ZM32.9893 6.4466H37.8486V23.3858H32.9893V6.4466ZM27.7816 7.87917L27.4718 6.4466H23.2901V23.3858H28.13V11.9059C29.2723 10.4152 31.2082 10.6862 31.8084 10.8992V6.4466C31.1889 6.21429 28.9238 5.78838 27.7816 7.87917ZM18.1017 2.24566L13.3779 3.25234L13.3585 18.759C13.3585 21.6242 15.5075 23.7343 18.3727 23.7343C19.9602 23.7343 21.1218 23.4439 21.7607 23.0955V19.1656C21.1412 19.4172 18.0823 20.3077 18.0823 17.4426V10.5701H21.7607V6.4466H18.0823L18.1017 2.24566ZM5.01448 11.3638C5.01448 10.6088 5.63399 10.3184 6.66006 10.3184C8.1314 10.3184 9.98994 10.7637 11.4613 11.5574V7.00801C9.85442 6.36916 8.26692 6.11749 6.66006 6.11749C2.73002 6.11749 0.116455 8.16956 0.116455 11.5961C0.116455 16.9393 7.47317 16.0875 7.47317 18.3912C7.47317 19.2817 6.69878 19.5721 5.61463 19.5721C4.00777 19.5721 1.95563 18.9139 0.329412 18.0234V22.6308C2.12987 23.4052 3.94969 23.7343 5.61463 23.7343C9.64146 23.7343 12.4099 21.7403 12.4099 18.275C12.3905 12.506 5.01448 13.532 5.01448 11.3638Z" fill="black"/>
</svg>
