<svg width="34" height="20" viewBox="0 0 34 20" fill="none" xmlns="http://www.w3.org/2000/svg">
<path d="M17.8913 5.27376C21.535 5.27376 22.9703 7.33836 22.9703 10.1267V17.0443C22.9703 19.1636 22.4175 20.0006 19.9618 20.0006H13.1435C9.69311 20.0006 8.25781 18.2992 8.25781 15.5095C8.25781 12.7198 9.5836 11.2697 13.1718 11.2697H20.101V10.1541C20.101 9.00982 19.4658 8.11812 17.8643 8.11812H9.14038V5.27246H17.8913V5.27376ZM20.101 16.3739V13.6129H13.2272C11.6811 13.6129 11.1297 14.2546 11.1297 15.3416C11.1297 16.4286 11.7095 17.1263 13.1731 17.1263H19.3021C19.8819 17.1263 20.1022 16.9037 20.1022 16.3726L20.101 16.3739Z" fill="black"/>
<path d="M29.7498 4.46875H26.7344V19.9051H29.7498V4.46875Z" fill="black"/>
<rect y="15.4365" width="4.42262" height="4.46843" fill="black"/>
<rect x="29.375" width="4.42897" height="4.42897" fill="url(#paint0_linear_219_182)"/>
<defs>
<linearGradient id="paint0_linear_219_182" x1="28.4258" y1="2.78966" x2="37.1253" y2="2.81627" gradientUnits="userSpaceOnUse">
<stop offset="0.0968634" stop-color="#85ECBC"/>
<stop offset="0.367501" stop-color="#7F5BB4"/>
<stop offset="0.618808" stop-color="#180635" stop-opacity="0"/>
</linearGradient>
</defs>
</svg>
