<svg width="36" height="21" viewBox="0 0 36 21" fill="none" xmlns="http://www.w3.org/2000/svg">
<path d="M18.903 5.7584C22.6703 5.7584 24.1544 7.89309 24.1544 10.7761V17.9286C24.1544 20.1198 23.5829 20.9853 21.0438 20.9853H13.9939C10.4264 20.9853 8.94238 19.2261 8.94238 16.3417C8.94238 13.4573 10.3132 11.9579 14.0233 11.9579H21.1876V10.8044C21.1876 9.62131 20.5309 8.69932 18.875 8.69932H9.85492V5.75705H18.903V5.7584ZM21.1876 17.2354V14.3806H14.0805C12.4819 14.3806 11.9118 15.0442 11.9118 16.1681C11.9118 17.292 12.5113 18.0134 14.0246 18.0134H20.3617C20.9612 18.0134 21.189 17.7832 21.189 17.2341L21.1876 17.2354Z" fill="white"/>
<path d="M31.1641 4.92606H28.0463V20.8866H31.1641V4.92606Z" fill="white"/>
<rect x="0.404175" y="16.2662" width="4.57278" height="4.62015" fill="white"/>
<rect x="30.7725" y="0.924805" width="4.57935" height="4.57935" fill="url(#paint0_linear_2853_21195)"/>
<defs>
<linearGradient id="paint0_linear_2853_21195" x1="29.791" y1="3.80919" x2="38.7859" y2="3.8367" gradientUnits="userSpaceOnUse">
<stop offset="0.0968634" stop-color="#85ECBC"/>
<stop offset="0.367501" stop-color="#7F5BB4"/>
<stop offset="0.618808" stop-color="#180635" stop-opacity="0"/>
</linearGradient>
</defs>
</svg>
