<svg width="76" height="19" viewBox="0 0 76 19" fill="none" xmlns="http://www.w3.org/2000/svg">
<path d="M2.81648 14.7043C2.81648 14.2305 3.0922 13.8946 3.58953 13.6994L11.9539 10.6324C13.4717 10.074 14.438 8.90237 14.438 7.08901C14.438 5.05306 13.223 3.71484 10.6836 3.71484H0.524383V6.5592H10.5186C11.2917 6.5592 11.6499 6.86641 11.6499 7.42487C11.6499 7.8141 11.485 8.23326 10.8768 8.45587L2.48536 11.4968C0.801394 12.1099 0 13.4208 0 15.0662C0 17.1022 1.24203 18.4417 3.75445 18.4417H14.1339V15.5973H3.92066C3.17466 15.5973 2.81648 15.2615 2.81648 14.7043Z" fill="black"/>
<path d="M30.313 3.71484V12.5291C30.313 14.2578 29.0709 15.5687 26.7518 15.5687H24.3785C22.0594 15.5687 20.789 14.2578 20.789 12.5291V3.71484H17.8359V12.6397C17.8359 16.0425 19.9889 18.4417 24.1569 18.4417H26.8626C31.0306 18.4417 33.1849 16.0425 33.1849 12.6397V3.71484H30.313Z" fill="black"/>
<path d="M43.2074 6.56017H50.4393V3.71582H42.9304C39.038 3.71582 36.6094 6.11367 36.6094 11.0786C36.6094 16.0435 39.038 18.4427 42.9304 18.4427H50.4393V15.5697H43.2074C40.6666 15.5697 39.5624 14.2588 39.5624 11.0786C39.5624 7.89839 40.6666 6.56017 43.2074 6.56017Z" fill="black"/>
<path d="M62.6114 3.71582H59.5475C55.6552 3.71582 53.2266 6.11367 53.2266 11.0786C53.2266 16.0435 55.6552 18.4427 59.5475 18.4427H62.6114C66.4767 18.4427 68.9337 16.0435 68.9337 11.0786C68.9337 6.11367 66.4767 3.71582 62.6114 3.71582ZM62.3357 15.5697H59.8233C57.2838 15.5697 56.1796 14.2588 56.1796 11.0786C56.1796 7.89839 57.2838 6.56017 59.8233 6.56017H62.3357C64.8481 6.56017 65.9793 7.89969 65.9793 11.0786C65.9793 14.2575 64.8481 15.5697 62.3357 15.5697Z" fill="black"/>
<path d="M72.4375 0V18.4421H75.3648V0H72.4375Z" fill="black"/>
</svg>
