<svg width="79" height="20" viewBox="0 0 79 20" fill="none" xmlns="http://www.w3.org/2000/svg">
<path d="M3.42395 16.1197C3.42395 15.6297 3.70903 15.2825 4.22325 15.0806L12.8717 11.9095C14.441 11.3321 15.4401 10.1207 15.4401 8.24578C15.4401 6.1407 14.1838 4.75705 11.5581 4.75705H1.05403V7.69798H11.3876C12.1869 7.69798 12.5573 8.01563 12.5573 8.59304C12.5573 8.99549 12.3868 9.42889 11.758 9.65905L3.08158 12.8032C1.34044 13.4372 0.511841 14.7925 0.511841 16.4938C0.511841 18.5989 1.79605 19.9839 4.39377 19.9839H15.1257V17.043H4.56562C3.79429 17.043 3.42395 16.6957 3.42395 16.1197Z" fill="white"/>
<path d="M31.8541 4.75705V13.8706C31.8541 15.658 30.5698 17.0134 28.1719 17.0134H25.7181C23.3202 17.0134 22.0067 15.658 22.0067 13.8706V4.75705H18.9534V13.985C18.9534 17.5033 21.1794 19.9839 25.489 19.9839H28.2865C32.5961 19.9839 34.8235 17.5033 34.8235 13.985V4.75705H31.8541Z" fill="white"/>
<path d="M45.1822 7.69899H52.6597V4.75806H44.8958C40.8714 4.75806 38.3602 7.23732 38.3602 12.3708C38.3602 17.5043 40.8714 19.9849 44.8958 19.9849H52.6597V17.0144H45.1822C42.5552 17.0144 41.4136 15.659 41.4136 12.3708C41.4136 9.08263 42.5552 7.69899 45.1822 7.69899Z" fill="white"/>
<path d="M65.2491 4.75806H62.0813C58.0568 4.75806 55.5457 7.23732 55.5457 12.3708C55.5457 17.5043 58.0568 19.9849 62.0813 19.9849H65.2491C69.2456 19.9849 71.7861 17.5043 71.7861 12.3708C71.7861 7.23732 69.2456 4.75806 65.2491 4.75806ZM64.9641 17.0144H62.3663C59.7406 17.0144 58.599 15.659 58.599 12.3708C58.599 9.08263 59.7406 7.69899 62.3663 7.69899H64.9641C67.5618 7.69899 68.7314 9.08398 68.7314 12.3708C68.7314 15.6577 67.5618 17.0144 64.9641 17.0144Z" fill="white"/>
<path d="M75.4088 0.916077V19.9843H78.4355V0.916077H75.4088Z" fill="white"/>
</svg>
